<svg data-v-fde0c5aa="" xmlns="http://www.w3.org/2000/svg" viewBox="0 0 300 300" class="iconLeft"><!----><defs data-v-fde0c5aa=""><!----></defs><rect data-v-fde0c5aa="" fill="transparent" x="0" y="0" width="300px" height="300px" class="logo-background-square"></rect><defs data-v-fde0c5aa=""><!----></defs><g data-v-fde0c5aa="" id="f4f1be12-28ad-4403-b60c-defa8fa87fd1" fill="#000000" transform="matrix(1.6826639191387467,0,0,1.6826639191387467,74.28437298151164,134.36805065067622)"><path d="M1.11 13.16L1.11 13.16Q1.16 13.15 1.65 13.15L1.65 13.15Q2.51 13.15 2.92 13.02Q3.32 12.89 3.50 12.78L3.50 12.78Q3.25 12.97 3.04 13.14L3.04 13.14Q2.58 13.49 2.30 13.65Q2.02 13.81 1.75 13.89Q1.48 13.98 1.19 14.02L1.19 14.02Q0.77 14.08 0.03 14.08L0.03 14.08L-0.23 14.08Q-0.23 14.08-0.22 14.07Q-0.22 14.06-0.13 13.96Q-0.03 13.86 0.14 13.66Q0.32 13.47 0.62 13.08Q0.91 12.69 1.25 12.07Q1.60 11.46 1.90 10.82Q2.19 10.18 2.47 9.52Q2.74 8.87 3.03 8.21Q3.32 7.55 3.62 6.87Q3.92 6.20 4.08 5.82Q4.23 5.43 4.26 5.34Q4.28 5.24 4.33 5.17L4.33 5.17L3.81 5.17Q2.54 5.17 1.84 5.46L1.84 5.46Q2.78 4.64 3.42 4.43L3.42 4.43Q4.00 4.25 5.30 4.25L5.30 4.25L5.67 4.25Q5.96 5.22 6.26 6.23Q6.56 7.23 6.86 8.24L6.86 8.24Q7.51 10.42 7.84 11.41Q8.18 12.39 8.23 12.58Q8.29 12.77 8.38 12.92L8.38 12.92Q8.58 13.25 9.02 13.25L9.02 13.25Q9.26 13.25 9.52 13.14Q9.78 13.03 9.93 12.94L9.93 12.94Q9.68 13.13 9.49 13.28L9.49 13.28Q9.00 13.65 8.86 13.74Q8.72 13.82 8.59 13.90Q8.45 13.99 8.30 14.05L8.30 14.05Q7.34 14.48 7.01 13.73L7.01 13.73Q6.77 13.21 6.43 12.05Q6.10 10.89 5.84 10.08L5.84 10.08Q5.26 10.49 3.34 10.46L3.34 10.46Q3.09 10.46 2.91 10.46L2.91 10.46Q2.14 12.00 1.41 12.82L1.41 12.82Q1.35 12.89 1.29 12.96L1.29 12.96Q1.11 13.17 1.11 13.16ZM3.45 9.51L3.45 9.51L4.80 9.54Q5.22 9.54 5.66 9.51L5.66 9.51Q5.35 8.51 4.72 6.45L4.72 6.45Q4.05 8.00 3.35 9.53L3.35 9.53Q3.43 9.51 3.45 9.51ZM17.97 4.10Q18.47 4.23 18.60 4.29Q18.74 4.35 18.74 4.41Q18.74 4.47 18.63 4.57Q18.52 4.68 18.35 4.80Q18.19 4.93 17.99 5.07Q17.79 5.22 17.62 5.33L17.62 5.33Q17.19 5.61 17.11 5.64L17.11 5.64Q17.12 5.61 17.21 5.54L17.21 5.54Q17.39 5.39 17.39 5.36Q17.39 5.32 17.36 5.29Q17.33 5.27 17.29 5.25Q17.25 5.24 17.22 5.22Q17.19 5.21 16.96 5.13L16.96 5.13Q16.42 4.92 15.41 4.92Q14.40 4.92 13.66 5.15Q12.93 5.39 12.41 5.87L12.41 5.87Q11.35 6.86 11.35 8.75L11.35 8.75Q11.35 10.67 12.41 12.00L12.41 12.00Q13.54 13.42 15.39 13.42L15.39 13.42Q16.61 13.42 18.39 12.64L18.39 12.64Q18.33 12.69 18.29 12.73L18.29 12.73Q18.22 12.80 18.12 12.89L18.12 12.89Q16.13 14.38 13.99 14.38L13.99 14.38Q12.15 14.38 11.05 12.99L11.05 12.99Q10.04 11.70 10.04 9.78L10.04 9.78Q10.04 8.80 10.33 8.12Q10.62 7.44 11.01 6.90Q11.40 6.37 11.89 5.92Q12.39 5.47 12.96 5.11Q13.54 4.75 14.16 4.50L14.16 4.50Q15.44 3.98 16.74 3.98L16.74 3.98Q17.47 3.98 17.97 4.10ZM27.25 4.10Q27.75 4.23 27.88 4.29Q28.01 4.35 28.01 4.41Q28.01 4.47 27.90 4.57Q27.79 4.68 27.63 4.80Q27.47 4.93 27.27 5.07Q27.07 5.22 26.89 5.33L26.89 5.33Q26.47 5.61 26.39 5.64L26.39 5.64Q26.39 5.61 26.49 5.54L26.49 5.54Q26.67 5.39 26.67 5.36Q26.67 5.32 26.64 5.29Q26.61 5.27 26.57 5.25Q26.53 5.24 26.50 5.22Q26.46 5.21 26.24 5.13L26.24 5.13Q25.70 4.92 24.68 4.92Q23.67 4.92 22.94 5.15Q22.20 5.39 21.69 5.87L21.69 5.87Q20.63 6.86 20.63 8.75L20.63 8.75Q20.63 10.67 21.68 12.00L21.68 12.00Q22.82 13.42 24.66 13.42L24.66 13.42Q25.89 13.42 27.67 12.64L27.67 12.64Q27.61 12.69 27.56 12.73L27.56 12.73Q27.49 12.80 27.39 12.89L27.39 12.89Q25.40 14.38 23.27 14.38L23.27 14.38Q21.43 14.38 20.33 12.99L20.33 12.99Q19.31 11.70 19.31 9.78L19.31 9.78Q19.31 8.80 19.60 8.12Q19.89 7.44 20.28 6.90Q20.67 6.37 21.17 5.92Q21.66 5.47 22.24 5.11Q22.82 4.75 23.44 4.50L23.44 4.50Q24.72 3.98 26.02 3.98L26.02 3.98Q26.75 3.98 27.25 4.10ZM29.32 13.16L29.32 13.16Q29.37 13.15 29.87 13.15L29.87 13.15Q30.72 13.15 31.13 13.02Q31.53 12.89 31.71 12.78L31.71 12.78Q31.46 12.97 31.25 13.14L31.25 13.14Q30.79 13.49 30.51 13.65Q30.24 13.81 29.96 13.89Q29.69 13.98 29.40 14.02L29.40 14.02Q28.98 14.08 28.25 14.08L28.25 14.08L27.98 14.08Q27.99 14.08 27.99 14.07Q27.99 14.06 28.09 13.96Q28.18 13.86 28.36 13.66Q28.53 13.47 28.83 13.08Q29.12 12.69 29.47 12.07Q29.81 11.46 30.11 10.82Q30.41 10.18 30.68 9.52Q30.95 8.87 31.24 8.21Q31.53 7.55 31.83 6.87Q32.14 6.20 32.29 5.82Q32.44 5.43 32.47 5.34Q32.49 5.24 32.55 5.17L32.55 5.17L32.03 5.17Q30.75 5.17 30.05 5.46L30.05 5.46Q30.99 4.64 31.63 4.43L31.63 4.43Q32.21 4.25 33.52 4.25L33.52 4.25L33.88 4.25Q34.17 5.22 34.47 6.23Q34.77 7.23 35.07 8.24L35.07 8.24Q35.72 10.42 36.06 11.41Q36.39 12.39 36.45 12.58Q36.50 12.77 36.59 12.92L36.59 12.92Q36.79 13.25 37.23 13.25L37.23 13.25Q37.47 13.25 37.73 13.14Q37.99 13.03 38.14 12.94L38.14 12.94Q37.89 13.13 37.70 13.28L37.70 13.28Q37.21 13.65 37.07 13.74Q36.93 13.82 36.80 13.90Q36.66 13.99 36.51 14.05L36.51 14.05Q35.55 14.48 35.22 13.73L35.22 13.73Q34.98 13.21 34.64 12.05Q34.31 10.89 34.05 10.08L34.05 10.08Q33.48 10.49 31.55 10.46L31.55 10.46Q31.30 10.46 31.12 10.46L31.12 10.46Q30.35 12.00 29.62 12.82L29.62 12.82Q29.56 12.89 29.50 12.96L29.50 12.96Q29.32 13.17 29.32 13.16ZM31.66 9.51L31.66 9.51L33.01 9.54Q33.43 9.54 33.87 9.51L33.87 9.51Q33.56 8.51 32.94 6.45L32.94 6.45Q32.26 8.00 31.56 9.53L31.56 9.53Q31.64 9.51 31.66 9.51ZM39.36 4.25L42.67 4.25Q45.83 4.25 45.83 6.30L45.83 6.30Q45.83 7.30 44.98 8.16L44.98 8.16Q44.31 8.84 43.24 9.35L43.24 9.35Q43.78 9.56 44.30 10.14L44.30 10.14Q44.44 10.30 44.60 10.47L44.60 10.47L46.38 12.44Q46.84 12.97 47.05 13.07Q47.26 13.17 47.39 13.17L47.39 13.17Q47.71 13.17 48.05 12.95L48.05 12.95Q47.23 14.12 46.01 14.12L46.01 14.12Q45.71 14.12 45.40 13.77L45.40 13.77Q45.33 13.68 45.25 13.59L45.25 13.59L43.42 11.57Q43.03 11.14 42.76 10.85Q42.49 10.56 42.22 10.38L42.22 10.38Q41.71 10.05 40.84 10.05L40.84 10.05L40.84 11.43Q40.84 12.10 40.78 12.33L40.78 12.33Q40.69 12.66 40.35 13.15L40.35 13.15L42.54 13.15Q42.45 13.17 42.26 13.34Q42.06 13.51 41.92 13.63Q41.79 13.75 41.66 13.85L41.66 13.85Q41.35 14.08 41.21 14.08L41.21 14.08L38.96 14.08Q39.51 13.48 39.51 12.45L39.51 12.45L39.51 5.17L38.04 5.17L38.29 4.96Q39.17 4.25 39.36 4.25L39.36 4.25ZM44.50 7.29L44.50 7.29Q44.50 6.71 44.25 6.30Q44.00 5.90 43.59 5.65L43.59 5.65Q42.84 5.17 41.69 5.17L41.69 5.17L40.84 5.17L40.84 9.09L41.90 9.09Q43.13 9.09 43.71 8.78L43.71 8.78Q44.50 8.37 44.50 7.29ZM57.57 8.72L57.57 8.72Q57.57 9.56 57.30 10.31Q57.03 11.05 56.56 11.66Q56.09 12.26 55.45 12.71Q54.82 13.17 54.09 13.47L54.09 13.47Q52.62 14.08 50.99 14.08L50.99 14.08L48.79 14.08Q49.31 13.54 49.31 12.13L49.31 12.13L49.31 5.17L47.80 5.17Q47.91 5.15 48.27 4.83L48.27 4.83Q48.95 4.25 49.13 4.25L49.13 4.25L52.17 4.24Q54.43 4.24 55.90 5.26L55.90 5.26Q57.57 6.42 57.57 8.72ZM56.01 11.26L56.01 11.26Q56.25 10.60 56.25 9.71Q56.25 8.82 56.06 8.14Q55.88 7.46 55.54 6.96Q55.20 6.46 54.71 6.12Q54.22 5.78 53.59 5.56L53.59 5.56Q52.42 5.17 50.63 5.17L50.63 5.17L50.63 11.76Q50.63 12.46 50.43 12.82L50.43 12.82Q50.34 12.97 50.20 13.17L50.20 13.17L52.47 13.17Q55.32 13.17 56.01 11.26ZM69.65 8.38L69.65 8.38Q69.65 9.08 69.41 9.85Q69.17 10.62 68.75 11.32Q68.33 12.02 67.75 12.63Q67.17 13.24 66.49 13.69L66.49 13.69Q65.02 14.64 63.50 14.64L63.50 14.64Q61.35 14.64 60.09 13.38L60.09 13.38Q58.82 12.13 58.82 9.99L58.82 9.99Q58.82 8.37 59.72 6.95L59.72 6.95Q60.57 5.58 61.99 4.77L61.99 4.77Q63.43 3.94 65.06 3.94L65.06 3.94Q66.93 3.94 68.28 5.18L68.28 5.18Q69.65 6.45 69.65 8.38ZM68.32 9.47L68.32 9.47Q68.32 8.52 67.99 7.66Q67.66 6.79 67.05 6.18L67.05 6.18Q65.78 4.90 63.66 4.90L63.66 4.90Q60.91 4.90 60.33 7.22L60.33 7.22Q60.16 7.95 60.16 8.96Q60.16 9.96 60.47 10.86Q60.78 11.76 61.38 12.40L61.38 12.40Q62.64 13.73 64.85 13.73L64.85 13.73Q66.62 13.73 67.53 12.50L67.53 12.50Q68.32 11.42 68.32 9.47ZM77.09 5.17L73.51 5.17Q74.65 4.25 74.84 4.25L74.84 4.25L82.55 4.25Q82.46 4.26 82.13 4.55Q81.81 4.83 81.68 4.94L81.68 4.94Q81.36 5.17 81.22 5.17L81.22 5.17L78.42 5.17L78.42 11.43Q78.42 12.26 78.14 12.80L78.14 12.80Q78.02 13.03 77.87 13.15L77.87 13.15L80.12 13.15Q80.03 13.17 79.70 13.45Q79.37 13.74 79.24 13.84L79.24 13.84Q78.93 14.08 78.79 14.08L78.79 14.08L76.41 14.08Q76.82 13.71 76.92 13.46L76.92 13.46Q77.09 13.06 77.09 12.45L77.09 12.45L77.09 5.17ZM83.76 5.17L82.48 5.17Q83.62 4.25 83.81 4.25L83.81 4.25L89.46 4.25Q89.38 4.25 89.01 4.57Q88.64 4.89 88.45 5.03Q88.25 5.17 88.13 5.17L88.13 5.17L85.09 5.17L85.09 8.49L88.41 8.49Q88.33 8.50 88.16 8.64Q87.99 8.79 87.79 8.96L87.79 8.96Q87.25 9.42 87.08 9.42L87.08 9.42L85.09 9.42L85.09 11.65Q85.09 12.41 84.86 12.89L84.86 12.89Q84.77 13.08 84.63 13.15L84.63 13.15L88.43 13.15Q88.82 13.15 89.24 12.97L89.24 12.97L89.66 12.80Q89.31 13.21 88.17 13.82L88.17 13.82Q87.68 14.08 87.51 14.08L87.51 14.08L83.15 14.08Q83.76 13.25 83.76 12.45L83.76 12.45L83.76 9.42L82.80 9.42Q83.40 8.94 83.76 8.67L83.76 8.67L83.76 5.17ZM98.27 4.10Q98.77 4.23 98.90 4.29Q99.03 4.35 99.03 4.41Q99.03 4.47 98.92 4.57Q98.81 4.68 98.65 4.80Q98.49 4.93 98.29 5.07Q98.09 5.22 97.91 5.33L97.91 5.33Q97.49 5.61 97.41 5.64L97.41 5.64Q97.41 5.61 97.51 5.54L97.51 5.54Q97.69 5.39 97.69 5.36Q97.69 5.32 97.65 5.29Q97.62 5.27 97.59 5.25Q97.55 5.24 97.51 5.22Q97.48 5.21 97.25 5.13L97.25 5.13Q96.71 4.92 95.70 4.92Q94.69 4.92 93.96 5.15Q93.22 5.39 92.71 5.87L92.71 5.87Q91.65 6.86 91.65 8.75L91.65 8.75Q91.65 10.67 92.70 12.00L92.70 12.00Q93.84 13.42 95.68 13.42L95.68 13.42Q96.91 13.42 98.68 12.64L98.68 12.64Q98.63 12.69 98.58 12.73L98.58 12.73Q98.51 12.80 98.41 12.89L98.41 12.89Q96.42 14.38 94.29 14.38L94.29 14.38Q92.45 14.38 91.35 12.99L91.35 12.99Q90.33 11.70 90.33 9.78L90.33 9.78Q90.33 8.80 90.62 8.12Q90.91 7.44 91.30 6.90Q91.69 6.37 92.19 5.92Q92.68 5.47 93.26 5.11Q93.84 4.75 94.46 4.50L94.46 4.50Q95.74 3.98 97.04 3.98L97.04 3.98Q97.77 3.98 98.27 4.10ZM108.18 13.15L110.37 13.15Q110.28 13.16 109.92 13.48L109.92 13.48Q109.22 14.08 109.03 14.08L109.03 14.08L106.72 14.08Q107.08 13.68 107.18 13.44L107.18 13.44Q107.33 13.06 107.33 12.45L107.33 12.45L107.33 9.42L102.25 9.42L102.25 11.43Q102.25 12.08 102.18 12.31L102.18 12.31Q102.09 12.67 101.75 13.15L101.75 13.15L103.95 13.15Q103.85 13.17 103.52 13.45Q103.20 13.74 103.06 13.84L103.06 13.84Q102.75 14.08 102.61 14.08L102.61 14.08L100.30 14.08Q100.80 13.69 100.88 13.00L100.88 13.00Q100.91 12.76 100.91 12.45L100.91 12.45L100.91 5.17L99.63 5.17L99.90 4.96Q100.77 4.25 100.96 4.25L100.96 4.25L103.95 4.25Q103.87 4.25 103.53 4.54Q103.20 4.83 103.06 4.94L103.06 4.94Q102.75 5.17 102.61 5.17L102.61 5.17L102.25 5.17L102.25 8.49L107.33 8.49L107.33 5.17L106.05 5.17L106.31 4.96Q107.19 4.25 107.39 4.25L107.39 4.25L110.37 4.25Q110.28 4.25 109.95 4.54Q109.61 4.83 109.48 4.94L109.48 4.94Q109.17 5.17 109.03 5.17L109.03 5.17L108.66 5.17L108.66 11.43Q108.66 12.08 108.60 12.31L108.60 12.31Q108.51 12.68 108.18 13.15L108.18 13.15Z"></path></g><defs data-v-fde0c5aa=""><linearGradient data-v-fde0c5aa="" gradientTransform="rotate(25)" id="99dd1492-46f2-49c8-a973-49eb5af71404" x1="0%" y1="0%" x2="100%" y2="0%"><stop data-v-fde0c5aa="" offset="0%" stop-color="#395ECA" stop-opacity="1"></stop><stop data-v-fde0c5aa="" offset="100%" stop-color="#848BD8" stop-opacity="1"></stop></linearGradient></defs><g data-v-fde0c5aa="" id="da68698f-58a3-4990-b020-ae12a083ce46" stroke="none" fill="url(#99dd1492-46f2-49c8-a973-49eb5af71404)" transform="matrix(0.27610603148330826,0,0,0.27610603148330826,36.41531544802178,136.22051385106522)"><g clip-rule="evenodd"><path d="M12.983 10.59l17.018 88.223-5.872-59.049 29.021-1.892-.054-9.883L64.549 1 53.622 18.977z"></path><path d="M59.389 54.548l5.16-53.541-8.74 39.716-19.612 1.045 1.57 20.462-7.766 36.583 12.057-39.899z"></path><path d="M62.8 67.182l.549-10.453-15.979 3.755-.032 11.797-17.337 26.532 21.68-27.616zM65.711 62.394l14.841-4.731 1.509-12.532-15.899 2.095zM72.07 44.502l10.988-1.417 1.581-10.278-8.079-.373L64.549 1l8.43 30.967z"></path><path d="M87.413 31.294l1.256-9.506-9.544-2.694L64.549 1l14.483 22.437-.422 7z"></path></g></g><!----></svg>