<?xml version="1.0" encoding="UTF-8" standalone="no"?>
<svg width="113px" height="24px" viewBox="0 0 113 24" version="1.1" xmlns="http://www.w3.org/2000/svg" xmlns:xlink="http://www.w3.org/1999/xlink">
    <!-- Generator: sketchtool 41.2 (35397) - http://www.bohemiancoding.com/sketch -->
    <title>0DF2A05C-EC38-4567-89C0-B60D11AE2D1C</title>
    <desc>Created with sketchtool.</desc>
    <defs></defs>
    <g id="Nav" stroke="none" stroke-width="1" fill="none" fill-rule="evenodd">
        <g id="960_Unauthenticated" transform="translate(-424.000000, -30.000000)">
            <g id="Group-3-Copy" transform="translate(424.000000, 30.000000)">
                <polyline id="Fill-3" fill="#0073D1" points="105.428571 7.05217396 112.928571 12.7256462 105.539989 18.3956044 105.539989 6.85714286"></polyline>
                <path d="M0,12.6013181 L3.58885594,12.6013181 C3.72499305,13.784985 4.11814765,14.4436956 4.76773292,14.8573872 C5.45135247,15.3403233 6.3908159,15.6652399 7.58788362,15.6652399 C8.64646702,15.6652399 9.49673718,15.4421187 9.99727578,15.0964879 C10.5447582,14.7183064 10.8152721,14.1661257 10.8176192,13.4423134 C10.82114,12.2669322 9.30544106,11.4170593 6.22944648,10.7275733 L5.92313798,10.6524105 L5.69076601,10.5985536 C4.04069032,10.2677187 2.76616529,9.74868078 2.2045997,9.40956021 C1.5344765,9.00533796 1.11080842,8.4206065 0.768705246,7.75538568 C0.445379604,7.12449121 0.256430681,6.34208738 0.256430681,5.37739883 C0.256430681,3.68889797 0.836773802,2.36141551 1.99922044,1.39613514 C3.16108028,0.465772935 4.85281861,0 7.07502225,0 C9.15932839,0 10.7665678,0.482936105 11.8943934,1.44821648 C13.0556664,2.51647588 13.6712174,3.91261102 13.7404596,5.63603006 L10.260748,5.62715256 C10.260748,5.62715256 10.3387922,5.27382798 9.99727578,4.55001565 C9.8265176,4.20556858 9.58710405,3.91261102 9.27962195,3.67114296 C8.66465776,3.22312503 7.82671036,2.99882015 6.76754015,2.99882015 C5.74181743,2.99882015 5.00714646,3.18879869 4.56294045,3.56757211 C4.05007909,3.94752919 3.79364841,4.48136297 3.79364841,5.17025712 C3.79364841,6.10061933 4.66797728,6.77530947 6.65076737,7.22273557 C7.23169729,7.3772041 7.75629461,7.50563196 8.04910676,7.58020298 C8.74270188,7.77669169 9.19629665,7.91044605 9.66397458,8.03887391 C10.0759067,8.15664877 10.3558093,8.24719929 10.722558,8.36083132 C11.3046615,8.54074869 11.5927793,8.64372771 12.0657384,8.88164476 C12.8115585,9.25805084 13.4282831,9.88006781 13.791511,10.5417376 C14.1881864,11.2649581 14.3554238,12.0538721 14.3554238,12.9149898 C14.3554238,14.7757142 13.7404596,16.2132777 12.5093576,17.2472107 C11.2794292,18.2124911 9.53605264,18.6735294 7.27981472,18.6735294 C4.95550825,18.6735294 3.21213169,18.1320018 2.05085865,17.1318032 C0.785722385,16.1321965 0.102102834,14.9686519 0,12.6013181 L0,12.6013181 Z M37.5239652,14.0595957 L40.6064145,14.0625549 C40.2302771,15.5101795 39.51321,16.6139489 38.4546266,17.3714958 C37.3942828,18.1645526 36.064012,18.5604892 34.4573594,18.5604892 C32.5091903,18.5604892 30.9923178,17.9230846 29.8985265,16.6476834 C28.8041484,15.4066087 28.2660547,13.6317001 28.2660547,11.322366 C28.2660547,9.11719448 28.8123636,7.39318361 29.8721206,6.15270067 C30.9659119,4.87789139 32.5203395,4.23989492 34.4679217,4.23989492 C36.5187804,4.23989492 38.2862156,4.86013639 39.414628,6.10061933 C40.5078325,7.37661227 41.2994228,9.15092899 41.2994228,11.4259368 L41.2994228,11.9946888 C41.2994228,12.1675041 40.7930163,12.0094846 40.7595688,12.6013181 L31.8901186,12.6013181 C31.923566,13.1931515 32.1799967,14.3401248 32.6588238,14.8567954 C33.102443,15.408976 33.7690454,15.5622609 34.658631,15.5622609 C35.2389742,15.5622609 36.0839631,15.5178734 36.5035236,15.2935685 C36.609734,15.2367525 36.8356512,15.0876104 37.0474853,14.8822442 C37.1319842,14.7964284 37.3197595,14.6052662 37.5239652,14.0595957 L37.5239652,14.0595957 Z M31.8901186,10.2339842 L37.1190746,10.2339842 C37.0504193,9.0503173 36.8110057,8.53778952 36.4014208,8.08917976 C35.956628,7.60742732 35.3246466,7.28902092 34.50489,7.28902092 C33.7526151,7.28902092 33.1370641,7.58138665 32.6588238,8.06373092 C32.1799967,8.54725886 31.923566,9.0503173 31.8901186,10.2339842 L31.8901186,10.2339842 Z M50.3044234,14.0732079 L53.6855529,14.0613712 C53.3088286,15.5089959 52.5911748,16.6115816 51.5325914,17.3691284 C50.4722476,18.1621853 49.1390428,18.5563464 47.5329769,18.5563464 C45.5853947,18.5563464 44.0632409,17.9142071 42.9700365,16.6388059 C41.8756584,15.398323 41.3299363,13.614537 41.3299363,11.3052028 C41.3299363,9.09943948 41.8586412,7.35826543 42.918985,6.1177825 C44.0127763,4.84297322 45.5337565,4.17005857 47.4819255,4.17005857 C49.5327841,4.17005857 51.1007081,4.72756569 52.2502452,5.96094663 C52.915674,6.67528962 53.3088286,7.86665038 53.5828632,8.45848384 L49.9945941,8.45848384 C49.8226623,8.45848384 49.6519041,7.99567007 49.4817327,7.82226287 C49.0369399,7.33991859 48.4049586,7.23812324 47.5846151,7.23812324 C46.8323402,7.23812324 46.2167892,7.47959129 45.7385489,7.96193556 C45.1235847,8.65201338 44.8155158,9.78892546 44.8155158,11.3738555 C44.8155158,12.9599691 45.1235847,14.0803099 45.7385489,14.7342859 C46.1821681,15.2864665 46.8487706,15.5622609 47.7383562,15.5622609 C48.3192861,15.5622609 48.8878933,15.5486487 49.2986518,15.3071807 C49.962907,14.9645091 50.1770882,14.456716 50.3044234,14.0732079 L50.3044234,14.0732079 Z M58.7396432,18.3261231 C58.6381271,18.3261231 57.1822815,18.2503685 57.1822815,18.2503685 C55.8655071,18.1467976 55.3825724,17.3028431 55.3825724,15.7173212 L55.3825724,0.764648833 L56.7680022,0.764648833 C57.2116214,0.764648833 57.8265856,0.81377101 58.1686888,1.15821808 C58.5102052,1.50266516 58.9033598,1.79266356 58.9033598,2.27500783 L58.9033598,4.3156496 L60.5616506,4.3156496 L60.7787659,8.08917976 L58.9033598,8.22530145 L58.9033598,14.7342859 L58.7396432,18.3261231 Z M60.6637535,18.5196527 L60.6637535,11.6324867 C60.6637535,10.2884329 60.8931914,9.13080665 61.286346,8.21701578 C61.6789138,7.30440859 62.3062008,6.54212709 62.9904071,5.9905383 C63.6394056,5.47327586 64.3723162,5.03591093 65.2442979,4.79444287 C66.1156927,4.55356666 66.9853272,4.3156496 67.9077735,4.3156496 L68.878924,4.3156496 L68.878924,8.45848384 L67.2411711,8.45848384 C66.2494827,8.45848384 65.7413157,8.58099336 65.2630754,9.06333764 C64.7836615,9.54627374 64.7713387,10.1854539 64.7713387,11.2187951 L64.7713387,18.5196527 L60.6637535,18.5196527 Z M81.7884778,4.3156496 L81.7884778,12.6149302 C81.7884778,15.0627534 80.902413,16.6654385 79.6384503,17.4229853 C78.3727272,18.1817158 76.7913069,18.5604892 75.2879307,18.5604892 C73.8180019,18.4906528 72.5117898,18.0781449 71.2988786,17.3200063 C70.0853805,16.5618676 69.4657219,14.9929171 69.4657219,12.6149302 L69.4657219,4.3156496 L72.9865093,4.3156496 L72.9865093,13.3387426 C72.9865093,14.1661257 73.2758007,14.769204 73.7546278,15.1485693 C74.2328681,15.5279345 74.8865609,15.7173212 75.5015251,15.7173212 C76.1170761,15.7173212 76.8188864,15.5279345 77.3147306,15.1485693 C77.809988,14.769204 78.2676904,14.1661257 78.2676904,13.3387426 L78.2676904,6.30776104 C78.2676904,5.82541677 78.1919935,5.29454215 78.5170795,4.95009508 C78.8415787,4.605648 79.0234861,4.3156496 79.5357607,4.3156496 L81.7884778,4.3156496 Z M94.6980315,18.5196527 L94.6980315,9.50958007 C94.6980315,8.67864589 94.8218459,8.07260842 95.3200373,7.69087584 C95.8176419,7.31032692 96.3064446,7.11975655 96.9249296,7.11975655 C97.5434145,7.11975655 98.1442956,7.31032692 98.642487,7.69087584 C99.1406784,8.07260842 99.3924147,8.67864589 99.3924147,9.50958007 L99.3924147,16.5760716 C99.3924147,17.0957014 99.5244442,17.608821 99.8512907,17.9372886 C100.178137,18.2675316 100.567771,18.5196527 101.083566,18.5196527 L103.5,18.5196527 L103.5,6.9031455 C103.5,6.9031455 103.207188,6.20774118 101.939704,5.40521501 C100.16288,4.2801396 98.3772544,4.20971141 96.865663,4.20971141 C96.1098673,4.24462959 95.3552452,4.35766978 94.6510877,4.54764832 C93.9463434,4.7382187 93.3302056,5.05899243 92.8144103,5.50878586 C92.1959253,4.98915608 91.5140661,4.64352534 90.7588572,4.4695263 C90.0036484,4.29671093 89.2519602,4.20971141 88.4621303,4.20971141 C86.98516,4.27954776 85.7980678,4.71217802 84.5792886,5.50878586 C83.358749,6.30598554 82.9620736,7.88203805 82.9620736,10.2369434 L82.9620736,18.5196527 L86.482861,18.5196527 L86.482861,9.50958007 C86.482861,8.67864589 86.5544503,8.07260842 87.0350378,7.69087584 C87.5162121,7.31032692 87.9533765,7.11975655 88.5718615,7.11975655 C89.1903465,7.11975655 89.8369977,7.31032692 90.335776,7.69087584 C90.8333806,8.07260842 91.1772441,8.67864589 91.1772441,9.50958007 L91.1772441,18.5196527 L94.6980315,18.5196527 L94.6980315,18.5196527 Z M23.5341165,14.5608787 C23.0194947,15.2888338 22.3153373,15.6522196 21.4222309,15.6522196 C20.4604691,15.6522196 19.7216905,15.2888338 19.206482,14.5608787 C18.6912734,13.9033517 18.4336692,12.9167653 18.4336692,11.599344 C18.4336692,10.1795355 18.6730827,9.14027599 19.1548438,8.48215718 C19.6700523,7.75479385 20.3918137,7.39081627 21.3189544,7.39081627 C22.2801294,7.39081627 23.0194947,7.75479385 23.5341165,8.48215718 C24.0499118,9.20892867 24.3075161,10.2481882 24.3075161,11.599344 C24.3075161,12.8463371 24.0499118,13.8335153 23.5341165,14.5608787 L23.5341165,14.5608787 Z M18.4143048,17.4377811 C18.4143048,17.5869232 16.198556,17.1377216 19.5826194,18.3308578 C20.2638918,18.5711422 21.114162,18.7179169 22.4033569,18.7179169 C24.0182248,18.7179169 25.3109405,18.0603899 26.3407708,16.7435605 C27.3717747,15.3924047 27.8693794,13.6257818 27.8693794,11.4436918 C27.8693794,9.33143819 27.3389141,7.59854982 26.3079101,6.24739402 C25.7927016,5.62419339 25.077395,5.14835928 24.2018925,4.81870805 C23.3258032,4.49024048 22.4233081,4.32511894 21.5654095,4.32511894 C19.9159206,4.32511894 18.4330824,4.7666267 17.0247674,5.65023406 C15.6164525,6.53324959 14.8935174,8.18801595 14.8935174,10.6121658 L14.8935174,23.8461538 L16.6814906,23.8461538 C17.1620781,23.8461538 17.5652083,23.5241964 17.9090718,23.1779739 C18.2517618,22.8317513 18.4143048,22.2683258 18.4143048,21.7836142 L18.4143048,17.4377811 Z" id="Fill-1" fill="#0B354D"></path>
            </g>
        </g>
    </g>
</svg>